# xmcd
#
# Track frame offsets:
#	150
#	20119
#	42167
#	80756
#	105153
#	155203
#	178946
#	203071
#
# Disc length: 3144 seconds
#
# Revision: 0
# Processed by: cddbd v1.5.2PL0 Copyright (c) Steve Scherf et al.
# Submitted via: FairStars CD Ripper 1.90
#
DISCID=670c4608
DTITLE=Gary Moore - Blues And Beyond
DYEAR=2017
DGENRE=Blues
TTITLE0=Walking By Myself
TTITLE1=Oh Pretty Woman
TTITLE2=Need Your Love So Bad
TTITLE3=Since I Met You Baby
TTITLE4=Surrender
TTITLE5=Cold Black Night
TTITLE6=All Your Love
TTITLE7=Still Got The Blues
EXTD=
EXTT0=
EXTT1=
EXTT2=
EXTT3=
EXTT4=
EXTT5=
EXTT6=
EXTT7=
PLAYORDER=
